<svg xmlns="http://www.w3.org/2000/svg" xmlns:xlink="http://www.w3.org/1999/xlink" width="107" height="124" viewBox="0 0 107 124">
  <defs>
    <style>
      .cls-1 {
        fill: #f76767;
        fill-rule: evenodd;
        filter: url(#filter);
      }
    </style>
    <filter id="filter" x="525" y="2949" width="107" height="124" filterUnits="userSpaceOnUse">
      <feFlood result="flood" flood-color="#fff"/>
      <feComposite result="composite" operator="in" in2="SourceGraphic"/>
      <feBlend result="blend" in2="SourceGraphic"/>
    </filter>
  </defs>
  <path id="Forma_1" data-name="Forma 1" class="cls-1" d="M557.923,3050.27a8.265,8.265,0,1,0,8.231,8.26A8.251,8.251,0,0,0,557.923,3050.27Zm0,12.4a4.135,4.135,0,1,1,4.115-4.14A4.133,4.133,0,0,1,557.923,3062.67Zm-6.173-103.34h8.231a2.065,2.065,0,0,0,0-4.13H551.75A2.065,2.065,0,0,0,551.75,2959.33Zm14.4,0h2.058a2.065,2.065,0,0,0,0-4.13h-2.058A2.065,2.065,0,0,0,566.154,2959.33ZM632,2973.8H594.962v-15.7a9.1,9.1,0,0,0-9.065-9.1H534.064a9.1,9.1,0,0,0-9.064,9.1v105.79a9.1,9.1,0,0,0,9.064,9.11H585.9a9.1,9.1,0,0,0,9.067-9.1v-46.7H632v-43.4Zm-97.936-20.67H585.9a4.966,4.966,0,0,1,4.951,4.97v3.3H529.115v-3.3A4.966,4.966,0,0,1,534.064,2953.13ZM585.9,3068.87H534.064a4.966,4.966,0,0,1-4.949-4.97v-15.7h61.731v15.7A4.965,4.965,0,0,1,585.9,3068.87Zm4.949-24.8H529.115v-78.54h61.731v8.27H553.808v43.4h8.23v14.47l19.205-14.47h9.6v26.87Zm37.039-31H579.872l-13.718,10.33v-10.33h-8.231v-35.14h69.962v35.14Zm-59.673-20.67h20.576a2.065,2.065,0,0,0,0-4.13H568.212A2.065,2.065,0,0,0,568.212,2992.4Zm-2.058,8.27a2.058,2.058,0,0,0,2.058,2.06H617.6a2.065,2.065,0,0,0,0-4.13H568.212A2.06,2.06,0,0,0,566.154,3000.67Z" transform="translate(-525 -2949)"/>
</svg>
