<svg xmlns="http://www.w3.org/2000/svg" xmlns:xlink="http://www.w3.org/1999/xlink" width="120" height="116" viewBox="0 0 120 116">
  <defs>
    <style>
      .cls-1 {
        fill: #f76767;
        fill-rule: evenodd;
        filter: url(#filter);
      }
    </style>
    <filter id="filter" x="500" y="3381" width="120" height="116" filterUnits="userSpaceOnUse">
      <feFlood result="flood" flood-color="#fff"/>
      <feComposite result="composite" operator="in" in2="SourceGraphic"/>
      <feBlend result="blend" in2="SourceGraphic"/>
    </filter>
  </defs>
  <path id="Forma_1" data-name="Forma 1" class="cls-1" d="M612.739,3429.16H588.967a2.19,2.19,0,0,0,0,4.38H608.82l6.323,59.08h-110.2l7.423-59.08h19.888a2.19,2.19,0,0,0,0-4.38H508.521L500,3497H620Zm-54.6,34.92c-0.321.19-.663,0.36-0.971,0.56-0.479.31-.948,0.63-1.409,0.97a2.187,2.187,0,0,0,2.583,3.53c0.388-.29.783-0.56,1.195-0.83a25.263,25.263,0,0,1,2.212-1.27,2.179,2.179,0,0,0,1.008-2.78c0.017-.02.039-0.03,0.054-0.05,3.946-4.19,17.242-19.9,22.748-46.08a45.136,45.136,0,0,0,.746-15.14c-1.876-14.38-10.786-21.99-25.767-21.99s-23.886,7.61-25.766,21.99a45.191,45.191,0,0,0,.748,15.14C540.968,3444.06,554.055,3459.71,558.136,3464.08ZM539.1,3403.56c1.6-12.23,8.613-18.18,21.443-18.18s19.844,5.95,21.44,18.18a40.833,40.833,0,0,1-.689,13.67c-4.949,23.53-16.749,38.47-20.751,42.99-4.007-4.53-15.805-19.47-20.752-42.99A40.862,40.862,0,0,1,539.1,3403.56Zm21.443,18.85a16.075,16.075,0,1,0-16.023-16.08A16.066,16.066,0,0,0,560.538,3422.41Zm0-27.77a11.7,11.7,0,1,1-11.661,11.69A11.687,11.687,0,0,1,560.538,3394.64Zm8.011,65.5a2.19,2.19,0,0,0,.454,4.33,1.8,1.8,0,0,0,.458-0.05c1.278-.27,2.663-0.5,4.113-0.68a2.185,2.185,0,0,0,1.9-2.44,2.16,2.16,0,0,0-2.432-1.9C571.461,3459.59,569.949,3459.84,568.549,3460.14Zm11.279,0.89a2.184,2.184,0,0,0,2.177,2.1,0.317,0.317,0,0,0,.1-0.01l4.364-.18a2.181,2.181,0,0,0,2.079-2.28,2.238,2.238,0,0,0-2.277-2.09l-4.354.18A2.182,2.182,0,0,0,579.828,3461.03Zm-30.9,10.07c-1.121.85-2.279,1.67-3.446,2.42a2.2,2.2,0,0,0-.641,3.03,2.163,2.163,0,0,0,3.019.64c1.249-.81,2.5-1.68,3.7-2.6A2.185,2.185,0,0,0,548.929,3471.1Zm48.612-14.43a7.639,7.639,0,0,1-2.936,1.15,2.188,2.188,0,0,0,.441,4.33,2.233,2.233,0,0,0,.443-0.04,11.924,11.924,0,0,0,4.571-1.87l0.293-.21a2.186,2.186,0,1,0-2.633-3.49Zm-78.217,17.11a2.18,2.18,0,1,0-4.209-1.14,14.569,14.569,0,0,0-.491,3.07q-0.016.375-.017,0.78c0,0.42.021,0.85,0.063,1.28a2.176,2.176,0,0,0,2.168,1.96,1.748,1.748,0,0,0,.225-0.01,2.186,2.186,0,0,0,1.95-2.4,8.343,8.343,0,0,1-.044-0.85c0-.18.006-0.36,0.015-0.54A10.213,10.213,0,0,1,519.324,3473.78Zm78.169-34.12a12.747,12.747,0,0,0-5.2.4,2.187,2.187,0,0,0,.591,4.29,2.009,2.009,0,0,0,.593-0.08,8.537,8.537,0,0,1,3.436-.27A2.19,2.19,0,0,0,597.493,3439.66Zm4.341,10.84a2.193,2.193,0,0,0,1.439,2.74,2.068,2.068,0,0,0,.644.1,2.186,2.186,0,0,0,2.083-1.55,9.264,9.264,0,0,0,.4-2.1c0.011-.19.017-0.37,0.017-0.55a8.765,8.765,0,0,0-.556-3.05,2.182,2.182,0,1,0-4.09,1.52,4.443,4.443,0,0,1,.284,1.53l-0.007.25A4.882,4.882,0,0,1,601.834,3450.5Zm-63.706,27.14c-1.278.6-2.58,1.16-3.869,1.66a2.19,2.19,0,0,0,.787,4.23,2.165,2.165,0,0,0,.785-0.15c1.386-.54,2.782-1.14,4.151-1.78a2.186,2.186,0,0,0,1.047-2.91A2.164,2.164,0,0,0,538.128,3477.64Zm-15.879-9.11a2.2,2.2,0,0,0,1.043-.27,5.3,5.3,0,0,1,1.987-.63,3.286,3.286,0,0,1,.886,0,2.158,2.158,0,0,0,2.447-1.88,2.192,2.192,0,0,0-1.876-2.46,8.423,8.423,0,0,0-1.943-.01,9.663,9.663,0,0,0-3.591,1.14A2.191,2.191,0,0,0,522.249,3468.53Zm-0.453,17.15a10.148,10.148,0,0,0,1.426.28,14.636,14.636,0,0,0,3.728-.04,2.187,2.187,0,0,0-.545-4.34,10.246,10.246,0,0,1-2.653.03,6.332,6.332,0,0,1-.859-0.16A2.185,2.185,0,0,0,521.8,3485.68Z" transform="translate(-500 -3381)"/>
</svg>
