<svg xmlns="http://www.w3.org/2000/svg" xmlns:xlink="http://www.w3.org/1999/xlink" width="92" height="120.06" viewBox="0 0 92 120.06">
  <defs>
    <style>
      .cls-1 {
        fill: #f76767;
        fill-rule: evenodd;
        filter: url(#filter);
      }
    </style>
    <filter id="filter" x="899" y="2952.94" width="92" height="120.06" filterUnits="userSpaceOnUse">
      <feFlood result="flood" flood-color="#fff"/>
      <feComposite result="composite" operator="in" in2="SourceGraphic"/>
      <feBlend result="blend" in2="SourceGraphic"/>
    </filter>
  </defs>
  <path id="Forma_1" data-name="Forma 1" class="cls-1" d="M957.517,3052.99a7.006,7.006,0,1,0,7.1,7.01A7.067,7.067,0,0,0,957.517,3052.99Zm0,10.01a3,3,0,1,1,3.043-3A3.029,3.029,0,0,1,957.517,3063Zm9.13-36.02a8.006,8.006,0,1,0-8.116-8.01A8.07,8.07,0,0,0,966.647,3026.98Zm0-12.01a4.005,4.005,0,1,1-4.058,4A4.037,4.037,0,0,1,966.647,3014.97Zm-48.694-38.02a2.043,2.043,0,0,0,1.435-.59l4.058-4a1.981,1.981,0,0,0,0-2.83,2.051,2.051,0,0,0-2.869,0l-4.058,4a1.981,1.981,0,0,0,0,2.83A2.043,2.043,0,0,0,917.953,2976.95Zm73.04,35.52a6.5,6.5,0,0,0-1.958-4.66l-1.13-1.12a8.93,8.93,0,0,0,3.086-6.73,9.078,9.078,0,0,0-9.13-9,7.974,7.974,0,0,0-1.1.08,8.919,8.919,0,0,0,.081-1.08,9.08,9.08,0,0,0-9.13-9.01,9.953,9.953,0,0,0-1.1.08,8.579,8.579,0,0,0,.081-1.08,9.078,9.078,0,0,0-9.13-9,7.974,7.974,0,0,0-1.1.08,8.919,8.919,0,0,0,.081-1.08,9.137,9.137,0,0,0-15.951-5.96L943,2962.4l-7.635-7.53a6.736,6.736,0,0,0-9.45,0l-24.98,24.63a6.55,6.55,0,0,0,0,9.33l7.635,7.53,9.962,9.82a8.892,8.892,0,0,0-.54,15.29,3.519,3.519,0,0,0,.46.49l21.823,21.44v3.59h-4.058v26.02h52.751v-26.02h-4.058v-6.06a16.765,16.765,0,0,0,2.971-22.66l1.158-1.14A6.513,6.513,0,0,0,990.993,3012.47Zm-4.058-12.51a4.98,4.98,0,0,1-1.9,3.9l-7.123-7.03a5.112,5.112,0,0,1,3.95-1.87A5.041,5.041,0,0,1,986.935,2999.96Zm-10.144-10a4.945,4.945,0,0,1-1.9,3.89l-7.123-7.02A5.079,5.079,0,0,1,976.791,2989.96Zm-10.144-10.01a4.983,4.983,0,0,1-1.9,3.9l-7.124-7.03a5.113,5.113,0,0,1,3.95-1.87A5.042,5.042,0,0,1,966.647,2979.95Zm-15.217-15.01a5.048,5.048,0,0,1,5.072,5.01,4.96,4.96,0,0,1-1.9,3.89l-7.123-7.02A5.09,5.09,0,0,1,951.43,2964.94ZM903.8,2986a2.566,2.566,0,0,1,0-3.66l24.98-24.64a2.684,2.684,0,0,1,.864-0.57,3.334,3.334,0,0,1,.452-0.08,2.46,2.46,0,0,1,1.08,0,3.334,3.334,0,0,1,.452.08,2.706,2.706,0,0,1,.864.57l4.766,4.7-28.692,28.3Zm36.327-20.77,2.39,2.36,10.144,10,1.163,1.15,8.982,8.86,1.162,1.14,8.982,8.86,1.163,1.15,10.144,10,1.907,1.89a2.563,2.563,0,0,1,0,3.66l-0.886.87h0l-24.091,23.77a2.656,2.656,0,0,1-3.715,0l-16.18-15.96h2.02a9.006,9.006,0,1,0,0-18.01H923.03l-11.6-11.44Zm-18.2,43.86,0.842-.09a2.089,2.089,0,0,1,.252-0.03h20.288a5,5,0,1,1,0,10H923.024A4.992,4.992,0,0,1,921.93,3009.09ZM940.271,3069v-18.01h17.1a11.251,11.251,0,0,1,11.309,11.16V3069h-28.4Zm44.635,0H972.733v-6.85a15.025,15.025,0,0,0-5-11.16h17.172V3069Zm0.051-47.85a12.834,12.834,0,0,1-3.3,17.22l-0.807.6v8.02H944.327v-5.44l-0.716-.6c-0.092-.08-0.189-0.15-0.365-0.28l-18.011-17.7h10.317l19.049,18.8a6.778,6.778,0,0,0,9.453,0Z" transform="translate(-899 -2952.94)"/>
</svg>
