<svg xmlns="http://www.w3.org/2000/svg" xmlns:xlink="http://www.w3.org/1999/xlink" width="70" height="124" viewBox="0 0 70 124">
  <defs>
    <style>
      .cls-1 {
        fill: #f76767;
        fill-rule: evenodd;
        filter: url(#filter);
      }
    </style>
    <filter id="filter" x="1325" y="2949" width="70" height="124" filterUnits="userSpaceOnUse">
      <feFlood result="flood" flood-color="#fff"/>
      <feComposite result="composite" operator="in" in2="SourceGraphic"/>
      <feBlend result="blend" in2="SourceGraphic"/>
    </filter>
  </defs>
  <path id="Forma_1" data-name="Forma 1" class="cls-1" d="M1385.37,2949h-50.74a9.618,9.618,0,0,0-9.63,9.58v104.83a9.62,9.62,0,0,0,9.63,9.59h50.74a9.62,9.62,0,0,0,9.63-9.59V2958.58A9.618,9.618,0,0,0,1385.37,2949Zm-56.71,19.17h62.68v85.66h-62.68v-85.66Zm5.97-15.53h50.74a5.966,5.966,0,0,1,5.97,5.94v5.95h-62.68v-5.95A5.966,5.966,0,0,1,1334.63,2952.64Zm50.74,116.72h-50.74a5.969,5.969,0,0,1-5.97-5.95v-5.94h62.68v5.94A5.969,5.969,0,0,1,1385.37,3069.36ZM1356.1,2960.4h7.8a1.815,1.815,0,1,0,0-3.63h-7.8A1.815,1.815,0,1,0,1356.1,2960.4Zm-5.86,0a1.838,1.838,0,0,0,1.3-.53,1.823,1.823,0,0,0,0-2.57A1.824,1.824,0,1,0,1350.24,2960.4Zm9.76,99.25a3.765,3.765,0,1,0,3.78,3.76A3.779,3.779,0,0,0,1360,3059.65Zm0,3.89a0.124,0.124,0,0,1-.12-0.13,0.12,0.12,0,0,1,.24,0A0.124,0.124,0,0,1,1360,3063.54Zm25.37-91.24h-50.74a1.822,1.822,0,0,0-1.83,1.82v11.64a1.822,1.822,0,0,0,1.83,1.82h50.74a1.814,1.814,0,0,0,1.82-1.82v-11.64A1.814,1.814,0,0,0,1385.37,2972.3Zm-1.83,11.64h-47.08v-8h47.08v8Zm1.83,9.71h-50.74a1.82,1.82,0,1,0,0,3.64h50.74A1.82,1.82,0,1,0,1385.37,2993.65Zm-5.86,11.4a1.82,1.82,0,1,0,0-3.64h-39.02a1.82,1.82,0,1,0,0,3.64h39.02Zm5.86,8.01h-35.13a1.82,1.82,0,1,0,0,3.64h35.13A1.82,1.82,0,1,0,1385.37,3013.06Zm-46.83-3.88a5.7,5.7,0,1,0,5.73,5.7A5.732,5.732,0,0,0,1338.54,3009.18Zm0,7.77a2.065,2.065,0,1,1,2.07-2.07A2.076,2.076,0,0,1,1338.54,3016.95Zm46.83,9.7h-35.13a1.82,1.82,0,1,0,0,3.64h35.13A1.82,1.82,0,1,0,1385.37,3026.65Zm-46.83-3.88a5.7,5.7,0,1,0,5.73,5.7A5.732,5.732,0,0,0,1338.54,3022.77Zm0,7.76a2.06,2.06,0,1,1,2.07-2.06A2.068,2.068,0,0,1,1338.54,3030.53Zm46.83,9.71h-35.13a1.82,1.82,0,1,0,0,3.64h35.13A1.82,1.82,0,0,0,1385.37,3040.24Zm-46.83-3.88a5.7,5.7,0,1,0,5.73,5.7A5.732,5.732,0,0,0,1338.54,3036.36Zm0,7.76a2.06,2.06,0,1,1,2.07-2.06A2.068,2.068,0,0,1,1338.54,3044.12Z" transform="translate(-1325 -2949)"/>
</svg>
