<svg xmlns="http://www.w3.org/2000/svg" xmlns:xlink="http://www.w3.org/1999/xlink" width="100" height="128" viewBox="0 0 100 128">
  <defs>
    <style>
      .cls-1 {
        fill: #f76767;
        fill-rule: evenodd;
        filter: url(#filter);
      }
    </style>
    <filter id="filter" x="910" y="3369" width="100" height="128" filterUnits="userSpaceOnUse">
      <feFlood result="flood" flood-color="#fff"/>
      <feComposite result="composite" operator="in" in2="SourceGraphic"/>
      <feBlend result="blend" in2="SourceGraphic"/>
    </filter>
  </defs>
  <path id="Forma_1" data-name="Forma 1" class="cls-1" d="M1000.1,3377.02H979.984a9.9,9.9,0,0,0-7.954-4.01h-5.183a7.851,7.851,0,0,0-13.694,0H947.97a9.9,9.9,0,0,0-7.954,4.01H919.9a9.9,9.9,0,0,0-9.9,9.89v100.2a9.908,9.908,0,0,0,9.9,9.89h80.2a9.908,9.908,0,0,0,9.9-9.89v-100.2A9.9,9.9,0,0,0,1000.1,3377.02Zm-58.27,5.88a6.142,6.142,0,0,1,6.14-6.13h6.383a1.892,1.892,0,0,0,1.771-1.25,4.1,4.1,0,0,1,7.751,0,1.894,1.894,0,0,0,1.772,1.25h6.383a6.142,6.142,0,0,1,6.14,6.13v6.14H941.83v-6.14Zm64.41,104.21a6.139,6.139,0,0,1-6.14,6.13H919.9a6.143,6.143,0,0,1-6.141-6.13v-100.2a6.151,6.151,0,0,1,6.141-6.14h18.4a9.937,9.937,0,0,0-.233,2.13v8.02a1.879,1.879,0,0,0,1.88,1.88h40.1a1.879,1.879,0,0,0,1.88-1.88v-8.02a9.874,9.874,0,0,0-.234-2.13h18.4a6.148,6.148,0,0,1,6.14,6.14v100.2Zm-6.14-102.08H988.07a1.88,1.88,0,0,0,0,3.76h10.15v96.44H921.779v-96.44H931.93a1.88,1.88,0,1,0,0-3.76H919.9a1.879,1.879,0,0,0-1.88,1.88v100.2a1.877,1.877,0,0,0,1.88,1.87h80.2a1.876,1.876,0,0,0,1.88-1.87v-100.2A1.878,1.878,0,0,0,1000.1,3385.03Zm-40.1-8.01a1.887,1.887,0,0,0-1.328.55,1.859,1.859,0,0,0-.552,1.32,1.88,1.88,0,0,0,3.76,0,1.859,1.859,0,0,0-.552-1.32A1.887,1.887,0,0,0,960,3377.02Zm-31.955,82.03a5.89,5.89,0,1,0,11-2.92l8.626-9.7a5.878,5.878,0,0,0,6.6-1.4l11.9,5.41a5.729,5.729,0,0,0-.031.6,5.89,5.89,0,1,0,9.752-4.44l9.787-23.76c0.127,0.01.256,0.02,0.386,0.02a5.9,5.9,0,1,0-3.862-1.45l-9.787,23.75c-0.127-.01-0.256-0.01-0.386-0.01a5.874,5.874,0,0,0-4.3,1.87l-11.9-5.41a5.68,5.68,0,0,0,.031-0.59,5.89,5.89,0,1,0-11.78,0,5.807,5.807,0,0,0,.779,2.91l-8.626,9.7A5.888,5.888,0,0,0,928.045,3459.05Zm58.02-44.21a2.13,2.13,0,1,1-2.13,2.13A2.129,2.129,0,0,1,986.065,3414.84Zm-14.035,34.07a2.125,2.125,0,1,1-2.13,2.13A2.129,2.129,0,0,1,972.03,3448.91Zm-22.055-10.02a2.125,2.125,0,1,1-2.13,2.13A2.129,2.129,0,0,1,949.975,3438.89Zm-13.91,20.16a2.13,2.13,0,1,1-2.13-2.13A2.136,2.136,0,0,1,936.065,3459.05Z" transform="translate(-910 -3369)"/>
</svg>
