<svg xmlns="http://www.w3.org/2000/svg" xmlns:xlink="http://www.w3.org/1999/xlink" width="70" height="123" viewBox="0 0 70 123">
  <defs>
    <style>
      .cls-1 {
        fill: #f76767;
        fill-rule: evenodd;
        filter: url(#filter);
      }
    </style>
    <filter id="filter" x="525" y="2500" width="70" height="123" filterUnits="userSpaceOnUse">
      <feFlood result="flood" flood-color="#fff"/>
      <feComposite result="composite" operator="in" in2="SourceGraphic"/>
      <feBlend result="blend" in2="SourceGraphic"/>
    </filter>
  </defs>
  <path id="Forma_1" data-name="Forma 1" class="cls-1" d="M585.931,2500H534.069a9.059,9.059,0,0,0-9.069,9.03v104.94a9.059,9.059,0,0,0,9.069,9.03h51.86a9.059,9.059,0,0,0,9.071-9.03V2509.03A9.059,9.059,0,0,0,585.931,2500Zm-56.813,16.4h61.764v77.9H529.118v-77.9Zm4.951-12.3h51.86a4.946,4.946,0,0,1,4.953,4.93v3.27H529.118v-3.27A4.945,4.945,0,0,1,534.069,2504.1Zm51.862,114.8H534.069a4.945,4.945,0,0,1-4.951-4.93V2598.4h61.764v15.57A4.945,4.945,0,0,1,585.931,2618.9ZM560,2600.45a8.2,8.2,0,1,0,8.235,8.2A8.227,8.227,0,0,0,560,2600.45Zm0,12.3a4.1,4.1,0,1,1,4.118-4.1A4.114,4.114,0,0,1,560,2612.75Zm-8.235-102.5H560a2.05,2.05,0,1,0,0-4.1h-8.235A2.05,2.05,0,1,0,551.765,2510.25Zm14.411,0h2.059a2.05,2.05,0,1,0,0-4.1h-2.059A2.05,2.05,0,1,0,566.176,2510.25Zm-2.137,12.34h-8.078a4.189,4.189,0,0,0-4.2,4.18v8.04a4.189,4.189,0,0,0,4.2,4.18h8.078a4.189,4.189,0,0,0,4.2-4.18v-8.04A4.189,4.189,0,0,0,564.039,2522.59Zm0.079,12.22a0.082,0.082,0,0,1-.079.08l-8.157-.08,0.079-8.12,8.157,0.08v8.04Zm-18.608-12.22h-8.079a4.189,4.189,0,0,0-4.2,4.18v8.04a4.189,4.189,0,0,0,4.2,4.18h8.079a4.189,4.189,0,0,0,4.2-4.18v-8.04A4.189,4.189,0,0,0,545.51,2522.59Zm0.078,12.22a0.082,0.082,0,0,1-.078.08l-8.157-.08,0.078-8.12,8.157,0.08v8.04Zm36.981-12.22H574.49a4.189,4.189,0,0,0-4.2,4.18v8.04a4.189,4.189,0,0,0,4.2,4.18h8.079a4.189,4.189,0,0,0,4.2-4.18v-8.04A4.189,4.189,0,0,0,582.569,2522.59Zm0.078,12.22a0.082,0.082,0,0,1-.078.08l-8.157-.08,0.078-8.12,8.157,0.08v8.04ZM564.039,2541h-8.078a4.189,4.189,0,0,0-4.2,4.18v8.04a4.189,4.189,0,0,0,4.2,4.18h8.078a4.189,4.189,0,0,0,4.2-4.18v-8.04A4.189,4.189,0,0,0,564.039,2541Zm0.079,12.22a0.082,0.082,0,0,1-.079.08l-8.157-.08,0.079-8.12,8.157,0.08v8.04ZM545.51,2541h-8.079a4.189,4.189,0,0,0-4.2,4.18v8.04a4.189,4.189,0,0,0,4.2,4.18h8.079a4.189,4.189,0,0,0,4.2-4.18v-8.04A4.189,4.189,0,0,0,545.51,2541Zm0.078,12.22a0.082,0.082,0,0,1-.078.08l-8.157-.08,0.078-8.12,8.157,0.08v8.04ZM582.569,2541H574.49a4.189,4.189,0,0,0-4.2,4.18v8.04a4.189,4.189,0,0,0,4.2,4.18h8.079a4.189,4.189,0,0,0,4.2-4.18v-8.04A4.189,4.189,0,0,0,582.569,2541Zm0.078,12.22a0.082,0.082,0,0,1-.078.08l-8.157-.08,0.078-8.12,8.157,0.08v8.04Zm-18.608,6.23h-8.078a4.189,4.189,0,0,0-4.2,4.18v8.04a4.189,4.189,0,0,0,4.2,4.18h8.078a4.189,4.189,0,0,0,4.2-4.18v-8.04A4.189,4.189,0,0,0,564.039,2559.45Zm0.079,12.22a0.082,0.082,0,0,1-.079.08l-8.157-.08,0.079-8.12,8.157,0.08v8.04Zm-18.608-12.22h-8.079a4.189,4.189,0,0,0-4.2,4.18v8.04a4.189,4.189,0,0,0,4.2,4.18h8.079a4.189,4.189,0,0,0,4.2-4.18v-8.04A4.189,4.189,0,0,0,545.51,2559.45Zm0.078,12.22a0.082,0.082,0,0,1-.078.08l-8.157-.08,0.078-8.12,8.157,0.08v8.04Zm36.981-12.22H574.49a4.189,4.189,0,0,0-4.2,4.18v8.04a4.189,4.189,0,0,0,4.2,4.18h8.079a4.189,4.189,0,0,0,4.2-4.18v-8.04A4.189,4.189,0,0,0,582.569,2559.45Zm0.078,12.22a0.082,0.082,0,0,1-.078.08l-8.157-.08,0.078-8.12,8.157,0.08v8.04Z" transform="translate(-525 -2500)"/>
</svg>
