<svg xmlns="http://www.w3.org/2000/svg" xmlns:xlink="http://www.w3.org/1999/xlink" width="105" height="119" viewBox="0 0 105 119">
  <defs>
    <style>
      .cls-1 {
        fill: #f76767;
        fill-rule: evenodd;
        filter: url(#filter);
      }
    </style>
    <filter id="filter" x="1313" y="3378" width="105" height="119" filterUnits="userSpaceOnUse">
      <feFlood result="flood" flood-color="#fff"/>
      <feComposite result="composite" operator="in" in2="SourceGraphic"/>
      <feBlend result="blend" in2="SourceGraphic"/>
    </filter>
  </defs>
  <path id="Forma_1" data-name="Forma 1" class="cls-1" d="M1378.92,3410.64h2.51a5.51,5.51,0,0,0,.31.76l-3.38,3.37a1.927,1.927,0,1,0,2.73,2.72l3.39-3.37a5.92,5.92,0,0,0,2.69.63,6.047,6.047,0,0,0,5.74-4.11h8.71a1.925,1.925,0,1,0,0-3.85h-8.7a6.408,6.408,0,0,0-.32-0.76l10.39-10.35a1.93,1.93,0,1,0-2.74-2.72l-10.39,10.34a6.058,6.058,0,0,0-8.43,3.49h-2.51A1.925,1.925,0,1,0,1378.92,3410.64Zm8.25-4.11a2.185,2.185,0,1,1-2.19,2.18A2.187,2.187,0,0,1,1387.17,3406.53Zm-10.45,35.16,0.25-3.98a30.705,30.705,0,1,0-20.57-30.92h-9.58a16.336,16.336,0,0,0-16.35,17.33l1.11,17.57a25.356,25.356,0,0,0,8.25,18.88v3.08l-3.4,5.08-15.92,4.32a10.193,10.193,0,0,0-7.51,9.8v8.11a6.058,6.058,0,0,0,6.06,6.04h70.17a6.06,6.06,0,0,0,6.07-6.04v-8.11a10.193,10.193,0,0,0-7.51-9.8l-15.92-4.32-3.4-5.08v-3.08A25.356,25.356,0,0,0,1376.72,3441.69Zm-17.08,35.57h0l-2.62-2.62,9.1-7.56,2.21,3.32-6.14,9.18a0.135,0.135,0,0,1-.09.06,0.165,0.165,0,0,1-.11-0.04Zm-10.99,0-2.34,2.34a0.193,0.193,0,0,1-.11.04,0.135,0.135,0,0,1-.09-0.06l-6.15-9.18,2.22-3.32,9.1,7.56-2.63,2.62h0Zm5.5-5.26-10.3-8.55a20.929,20.929,0,0,0,20.6,0Zm0,14.72c0.16,0,.32-0.01.48-0.02l1.33,6.44h-3.62l1.33-6.44C1353.83,3486.71,1353.99,3486.72,1354.15,3486.72Zm2.19-6.04a2.19,2.19,0,0,1-4.38,0v-1.26l2.19-2.18,2.19,2.18v1.26Zm28.9-98.75v4.17a1.935,1.935,0,0,0,3.87,0v-4.17a26.942,26.942,0,0,1,24.95,24.86h-4.19a1.925,1.925,0,1,0,0,3.85h4.19a26.942,26.942,0,0,1-24.95,24.86v-4.17a1.935,1.935,0,0,0-3.87,0v4.17a26.568,26.568,0,0,1-8.02-1.82l0.6-9.56a16.336,16.336,0,0,0-16.35-17.33h-1.19A26.943,26.943,0,0,1,1385.24,3381.93Zm-47.54,32.64a12.433,12.433,0,0,1,9.12-3.93h14.65a12.487,12.487,0,0,1,12.49,13.24l-0.36,5.81a37.194,37.194,0,0,0-3.47-5.71,1.943,1.943,0,0,0-2.26-.6c-9.72,3.92-27.99,3.97-28.17,3.97a1.909,1.909,0,0,0-1.19.41,18.07,18.07,0,0,0-3.66,4.24l-0.51-8.12A12.305,12.305,0,0,1,1337.7,3414.57Zm-2.25,27.13a17.189,17.189,0,0,1,5-10.5c3.48-.05,17.95-0.43,27.42-3.71,1.6,2.39,4.98,8.18,4.98,14.12,0,11.41-8.39,20.69-18.7,20.69C1343.86,3462.3,1335.49,3453.07,1335.45,3441.7Zm-18.58,49.26v-8.11a6.32,6.32,0,0,1,4.66-6.08l15.27-4.15,6.09,9.1a3.984,3.984,0,0,0,2.93,1.75,2.68,2.68,0,0,0,.4.02,3.916,3.916,0,0,0,2.25-.7,6.123,6.123,0,0,0,1.57,2.33l-1.65,8.02h-17.07v-6.29a1.935,1.935,0,0,0-3.87,0v6.29h-8.39A2.187,2.187,0,0,1,1316.87,3490.96Zm74.56-8.11v8.11a2.2,2.2,0,0,1-2.2,2.18h-8.38v-6.29a1.935,1.935,0,0,0-3.87,0v6.29h-17.07l-1.66-8.02a6.035,6.035,0,0,0,1.58-2.33,3.916,3.916,0,0,0,2.25.7,2.748,2.748,0,0,0,.4-0.02,4.021,4.021,0,0,0,2.93-1.75l6.09-9.1,15.27,4.15A6.331,6.331,0,0,1,1391.43,3482.85Z" transform="translate(-1313 -3378)"/>
</svg>
