<svg xmlns="http://www.w3.org/2000/svg" width="115" height="115" viewBox="0 0 115 115">
  <defs>
    <style>
      .cls-1 {
        fill: #fff;
        fill-rule: evenodd;
      }
    </style>
  </defs>
  <path class="cls-1" d="M847.177,1093.18a57.535,57.535,0,1,0-81.364,0A57.611,57.611,0,0,0,847.177,1093.18Zm-77.305-77.31a51.795,51.795,0,1,1,0,73.25A51.844,51.844,0,0,1,769.872,1015.87Zm36.623,58.16a2.954,2.954,0,0,0,2.041-.84,2.906,2.906,0,0,0,.845-2.04v-15.79h15.79a2.923,2.923,0,0,0,2.041-.85,2.868,2.868,0,0,0-2.018-4.9H809.4v-15.79a2.862,2.862,0,0,0-5.724,0v15.79H787.89a2.86,2.86,0,1,0,0,5.72h15.79v15.79A2.787,2.787,0,0,0,806.5,1074.03Z" transform="translate(-749 -995)"/>
</svg>
