<svg xmlns="http://www.w3.org/2000/svg" width="104" height="113" viewBox="0 0 104 113">
  <defs>
    <style>
      .cls-1 {
        fill: #fff;
        fill-rule: evenodd;
      }
    </style>
  </defs>
  <path class="cls-1" d="M1373.5,1078.18h62.08a12.5,12.5,0,0,0,12.42-12.54v-26.4a2.77,2.77,0,1,0-5.54,0v26.38a6.912,6.912,0,0,1-6.88,6.94H1373.5a6.92,6.92,0,0,1-6.89-6.94v-51.54a1.564,1.564,0,0,0-.02-0.3v-0.07c0-.08-0.02-0.14-0.02-0.19a0.3,0.3,0,0,0-.05-0.16c0-.03-0.02-0.07-0.02-0.1a1.262,1.262,0,0,0-.07-0.16,0.637,0.637,0,0,1-.02-0.09,0.669,0.669,0,0,1-.07-0.17,0.405,0.405,0,0,1-.05-0.09,0.346,0.346,0,0,0-.07-0.12,0.673,0.673,0,0,0-.07-0.11,0.607,0.607,0,0,0-.07-0.1c-0.02-.04-0.07-0.09-0.09-0.14a0.1,0.1,0,0,1-.04-0.07,1.741,1.741,0,0,1-.12-0.14,0.108,0.108,0,0,1-.05-0.04,1.788,1.788,0,0,0-.13-0.14,0.13,0.13,0,0,0-.07-0.05,1.741,1.741,0,0,1-.14-0.12,1.142,1.142,0,0,0-.16-0.09,0.179,0.179,0,0,1-.07-0.05,2.092,2.092,0,0,1-.26-0.13l-17.11-7.23a2.759,2.759,0,0,0-3.62,1.49,2.807,2.807,0,0,0,1.48,3.66l15.35,6.55v69.34a12.489,12.489,0,0,0,11.38,12.49,12.272,12.272,0,1,0,20.51.05h29.39a12.262,12.262,0,1,0,10.27-5.59h-59.1a6.929,6.929,0,0,1-6.89-6.95v-9.2A12.306,12.306,0,0,0,1373.5,1078.18Zm15.9,26.42a6.74,6.74,0,1,1-6.74-6.8A6.784,6.784,0,0,1,1389.4,1104.6Zm49.92,0a6.74,6.74,0,1,1-6.74-6.8A6.79,6.79,0,0,1,1439.32,1104.6Zm-36.78-44.29h0a1.121,1.121,0,0,0,.21.18,0.55,0.55,0,0,0,.09.07c0.05,0.03.07,0.07,0.12,0.1a0.3,0.3,0,0,1,.11.07,0.746,0.746,0,0,1,.12.07,0.3,0.3,0,0,1,.11.07,0.284,0.284,0,0,0,.12.04c0.04,0.03.09,0.03,0.11,0.05a0.784,0.784,0,0,1,.14.05,0.3,0.3,0,0,0,.12.02c0.04,0,.09.02,0.14,0.02s0.09,0.03.13,0.03,0.07,0.02.12,0.02c0.09,0,.18.02,0.28,0.02a1.229,1.229,0,0,0,.27-0.02,0.968,0.968,0,0,0,.12-0.02c0.04,0,.09-0.03.14-0.03s0.09-.02.14-0.02,0.09-.02.13-0.02a1.213,1.213,0,0,1,.14-0.05,0.334,0.334,0,0,0,.12-0.05,0.246,0.246,0,0,1,.11-0.04c0.05-.03.1-0.05,0.14-0.07a0.746,0.746,0,0,1,.12-0.07c0.04-.03.09-0.05,0.11-0.07a0.53,0.53,0,0,0,.12-0.1,0.673,0.673,0,0,0,.11-0.07c0.07-.04.12-0.11,0.19-0.16l0.02-.02,10.99-11.09a2.819,2.819,0,0,0,0-3.97,2.758,2.758,0,0,0-3.92,0l-6.26,6.32v-38.73a2.77,2.77,0,1,0-5.54,0v38.73l-6.24-6.29a2.741,2.741,0,0,0-3.92,0,2.807,2.807,0,0,0,0,3.96Z" transform="translate(-1344 -1004)"/>
</svg>
