<svg xmlns="http://www.w3.org/2000/svg" width="74" height="124" viewBox="0 0 74 124">
  <defs>
    <style>
      .cls-1 {
        fill: #fff;
        fill-rule: evenodd;
      }
    </style>
  </defs>
  <path class="cls-1" d="M1143,1110.35V1005.63a9.6,9.6,0,0,0-9.54-9.63h-54.92a9.6,9.6,0,0,0-9.54,9.63v104.74a9.6,9.6,0,0,0,9.54,9.63h54.92A9.633,9.633,0,0,0,1143,1110.35Zm-67.85-92.03h61.67v70.47h-61.67v-70.47Zm3.39-16.11h54.92a3.406,3.406,0,0,1,3.39,3.42v6.48h-61.7v-6.48A3.406,3.406,0,0,1,1078.54,1002.21Zm-3.39,108.14v-15.38h61.67v15.38a3.4,3.4,0,0,1-3.38,3.42h-54.9A3.406,3.406,0,0,1,1075.15,1110.35Zm37.08-8.82h-12.48a3.115,3.115,0,0,0,0,6.23h12.48A3.115,3.115,0,0,0,1112.23,1101.53Z" transform="translate(-1069 -996)"/>
</svg>
