<svg xmlns="http://www.w3.org/2000/svg" width="101" height="94" viewBox="0 0 101 94">
  <defs>
    <style>
      .cls-1 {
        fill: #fff;
        fill-rule: evenodd;
      }
    </style>
  </defs>
  <path id="иконка" class="cls-1" d="M554.106,1043.83a2.885,2.885,0,0,0-2.893,2.9v26.44a13.017,13.017,0,0,1-12.968,13.02h-63.49a13.016,13.016,0,0,1-12.968-13.02V1046.3a2.894,2.894,0,1,0-5.787,0v26.87A18.816,18.816,0,0,0,474.755,1092h63.49A18.815,18.815,0,0,0,557,1073.17v-26.44A2.9,2.9,0,0,0,554.106,1043.83Zm-49.642,25.09a2.913,2.913,0,0,0,2.036.87,2.791,2.791,0,0,0,2.036-.87l18.391-18.46a2.916,2.916,0,0,0,0-4.12,2.878,2.878,0,0,0-4.094,0l-13.44,13.52v-58.95a2.894,2.894,0,1,0-5.787,0v58.95l-13.461-13.52a2.878,2.878,0,0,0-4.094,0,2.916,2.916,0,0,0,0,4.12Z" transform="translate(-456 -998)"/>
</svg>
