<svg xmlns="http://www.w3.org/2000/svg" width="128" height="128" viewBox="0 0 128 128">
  <defs>
    <style>
      .cls-1 {
        fill: #fff;
        stroke: #fff;
        stroke-linejoin: round;
        stroke-width: 1px;
        fill-rule: evenodd;
      }
    </style>
  </defs>
  <path id="Forma_1" data-name="Forma 1" class="cls-1" d="M1015.76,1620.63h-2.44a41.907,41.907,0,0,0-12.57-17.28V1586.5a2,2,0,0,0-2-2,18.861,18.861,0,0,0-16.182,9.08,58.965,58.965,0,0,0-11.26-2.35,23.245,23.245,0,1,0-37.145,8.15,49.619,49.619,0,0,0-5.249,3.78c-9,7.43-14.241,17.17-14.954,27.63a17.8,17.8,0,0,1-5.648-3.73,1.186,1.186,0,0,1-.118-0.11c2.753-3.23,5.414-7.46,5.414-11.76a7.306,7.306,0,1,0-14.611,0,19.726,19.726,0,0,0,3.846,11.65,37.258,37.258,0,0,1-3.062,2.7,1.993,1.993,0,0,0,2.416,3.17,39.268,39.268,0,0,0,3.26-2.85,20.386,20.386,0,0,0,8.462,5.1c0.627,13.02,8.391,25.06,21.113,32.69l-1.18,7.08a6.245,6.245,0,0,0,6.158,7.27h4.133a6.22,6.22,0,0,0,6.158-5.22l0.465-2.79a60.762,60.762,0,0,0,27.959,0l0.466,2.79a6.219,6.219,0,0,0,6.158,5.22h4.133a6.245,6.245,0,0,0,6.158-7.27l-1.184-7.11c8.969-5.38,15.6-13.03,18.859-21.75h2.44a6.248,6.248,0,0,0,6.24-6.24v-12.75A6.25,6.25,0,0,0,1015.76,1620.63Zm-112.774-5.44a3.321,3.321,0,0,1,6.642,0c0,2.47-1.384,5.44-4.014,8.65A15.525,15.525,0,0,1,902.986,1615.19Zm27.628-32.94a19.26,19.26,0,1,1,38.52,0,19.016,19.016,0,0,1-2.062,8.67c-0.772-.03-1.545-0.04-2.321-0.04-1.916,0-3.815.09-5.693,0.26a5.7,5.7,0,0,0,1.31-3.58c0-3.62-3.6-6.55-8.5-7.18v-6.6c2.682,0.49,4.516,1.88,4.516,3.15a1.993,1.993,0,0,0,3.985,0c0-3.62-3.6-6.54-8.5-7.18v-0.26a1.993,1.993,0,0,0-3.985,0v0.26c-4.9.64-8.5,3.56-8.5,7.18s3.6,6.55,8.5,7.18v6.6c-2.683-.49-4.516-1.88-4.516-3.15a1.993,1.993,0,0,0-3.985,0c0,2.91,2.333,5.38,5.8,6.56a54.688,54.688,0,0,0-7.344,3.15A19.326,19.326,0,0,1,930.614,1582.25Zm17.268-2.17c-2.683-.48-4.516-1.88-4.516-3.15s1.833-2.66,4.516-3.15v6.3Zm3.985,10.63v-6.3c2.682,0.48,4.516,1.88,4.516,3.15S954.549,1590.22,951.867,1590.71Zm66.153,48.92a2.271,2.271,0,0,1-2.26,2.26h-3.85a1.991,1.991,0,0,0-1.89,1.36c-2.88,8.74-9.53,16.42-18.731,21.61a1.992,1.992,0,0,0-.985,2.06l1.41,8.47a2.245,2.245,0,0,1-2.227,2.62h-4.134a2.249,2.249,0,0,1-2.227-1.88l-0.823-4.94a1.966,1.966,0,0,0-2.5-1.59,56.561,56.561,0,0,1-30.107,0,1.994,1.994,0,0,0-2.5,1.59l-0.822,4.94a2.248,2.248,0,0,1-2.227,1.88h-4.134a2.245,2.245,0,0,1-2.227-2.62l1.406-8.44a1.985,1.985,0,0,0-.987-2.06c-12.739-7.19-20.344-19.01-20.344-31.64,0-21.17,21.034-38.39,46.888-38.39a55.649,55.649,0,0,1,18.12,3.01,1.987,1.987,0,0,0,2.435-1,14.928,14.928,0,0,1,11.457-8.25v15.67a2,2,0,0,0,.746,1.56,37.733,37.733,0,0,1,12.511,17.4,1.987,1.987,0,0,0,1.89,1.37h3.85a2.264,2.264,0,0,1,2.26,2.26v12.75Zm-21.39-21.12a1.991,1.991,0,0,0-1.993,1.99v4.25a1.993,1.993,0,0,0,3.985,0v-4.25A1.99,1.99,0,0,0,996.63,1618.51Z" transform="translate(-896.5 -1556.5)"/>
</svg>
