<svg xmlns="http://www.w3.org/2000/svg" width="124" height="124" viewBox="0 0 124 124">
  <defs>
    <style>
      .cls-1 {
        fill: #fff;
        fill-rule: evenodd;
      }
    </style>
  </defs>
  <path class="cls-1" d="M1004.84,2026.17a62,62,0,0,0-91.8,83.14c-2.779,5.68-6.052,9.47-9.767,11.29a5.786,5.786,0,0,0,1.663,10.91,30.607,30.607,0,0,0,4.389.33h0a40.154,40.154,0,0,0,22.288-7.21A62.012,62.012,0,0,0,1004.84,2026.17Zm-4.959,82.7a55.074,55.074,0,0,1-66.734,8.54,3.639,3.639,0,0,0-1.766-.49,3.694,3.694,0,0,0-2.156.72,33.379,33.379,0,0,1-19.457,7.14c4.182-3.11,7.689-7.94,10.625-14.67a3.534,3.534,0,0,0-.6-3.74A54.987,54.987,0,1,1,999.881,2108.87Zm-12.91-59.33H935.017a3.505,3.505,0,1,0,0,7.01h51.954A3.505,3.505,0,1,0,986.971,2049.54Zm0,16.96H935.017a3.505,3.505,0,1,0,0,7.01h51.954A3.505,3.505,0,1,0,986.971,2066.5Zm0,16.95H935.017a3.505,3.505,0,1,0,0,7.01h51.954A3.505,3.505,0,1,0,986.971,2083.45Z" transform="translate(-899 -2008)"/>
</svg>
