<svg xmlns="http://www.w3.org/2000/svg" width="150" height="108" viewBox="0 0 150 108">
  <defs>
    <style>
      .cls-1 {
        fill: #fff;
        fill-rule: evenodd;
      }
    </style>
  </defs>
  <path id="Forma_1" data-name="Forma 1" class="cls-1" d="M1436,2044.38a11.553,11.553,0,0,1,0-16.76,11.63,11.63,0,0,0-11.62-11.62h-54.3a11.638,11.638,0,0,0-11.47,9.8,44.336,44.336,0,0,0-37.34,24.67h-23.65a628.8,628.8,0,0,1-11.62,28.38,11.565,11.565,0,0,1,0,16.77,11.553,11.553,0,0,1,0,16.76,11.63,11.63,0,0,0,11.62,11.62h54.3a11.638,11.638,0,0,0,11.47-9.8,44.336,44.336,0,0,0,37.34-24.67h23.65a628.8,628.8,0,0,1,11.62-28.38A11.565,11.565,0,0,1,1436,2044.38Zm-6.47,0a5.155,5.155,0,0,1-5.15,5.15h-24.13a44.336,44.336,0,0,0-7.45-10.29h31.58A5.153,5.153,0,0,1,1429.53,2044.38Zm0,16.77a5.155,5.155,0,0,1-5.15,5.15h-19.26a44.433,44.433,0,0,0-2.11-10.3h21.37A5.155,5.155,0,0,1,1429.53,2061.15Zm0,16.77a5.153,5.153,0,0,1-5.15,5.14h-21.06a43.7,43.7,0,0,0,1.87-10.29h19.19A5.155,5.155,0,0,1,1429.53,2077.92Zm-77.61,39.61h-54.3a5.145,5.145,0,1,1,0-10.29h39.47a44.03,44.03,0,0,0,19.69,6.82A5.148,5.148,0,0,1,1351.92,2117.53Zm-59.45-21.91a5.155,5.155,0,0,1,5.15-5.15h24.13a44.336,44.336,0,0,0,7.45,10.29h-31.58A5.153,5.153,0,0,1,1292.47,2095.62Zm0-16.77a5.155,5.155,0,0,1,5.15-5.15h19.26a44.433,44.433,0,0,0,2.11,10.3h-21.37A5.155,5.155,0,0,1,1292.47,2078.85Zm0-16.77a5.153,5.153,0,0,1,5.15-5.14h21.06a43.7,43.7,0,0,0-1.87,10.29h-19.19A5.155,5.155,0,0,1,1292.47,2062.08ZM1361,2107.8a37.8,37.8,0,1,1,37.81-37.8A37.849,37.849,0,0,1,1361,2107.8Zm9.08-85.33h54.3a5.15,5.15,0,0,1,0,10.3h-39.47a43.921,43.921,0,0,0-19.69-6.83A5.148,5.148,0,0,1,1370.08,2022.47Zm23.19,47.53a32.27,32.27,0,1,0-32.27,32.25A32.3,32.3,0,0,0,1393.27,2070ZM1361,2095.78a25.78,25.78,0,1,1,25.79-25.78A25.818,25.818,0,0,1,1361,2095.78Zm3.24-8.55v-1.01c5.18-1.13,8.89-4.92,8.89-9.55s-3.71-8.43-8.89-9.56v-6.55c1.5,0.67,2.41,1.76,2.41,2.77a3.24,3.24,0,0,0,6.48,0c0-4.63-3.71-8.42-8.89-9.55v-1.01a3.24,3.24,0,0,0-6.48,0v1.01c-5.18,1.13-8.89,4.92-8.89,9.55s3.71,8.43,8.89,9.56v6.55c-1.5-.67-2.41-1.76-2.41-2.77a3.24,3.24,0,1,0-6.48,0c0,4.63,3.71,8.42,8.89,9.55v1.01A3.24,3.24,0,1,0,1364.24,2087.23Zm-8.89-23.9c0-1.01.91-2.1,2.41-2.77v5.55C1356.26,2065.44,1355.35,2064.35,1355.35,2063.33Zm11.3,13.34c0,1.01-.91,2.1-2.41,2.77v-5.55C1365.74,2074.56,1366.65,2075.65,1366.65,2076.67Z" transform="translate(-1286 -2016)"/>
</svg>
