<svg xmlns="http://www.w3.org/2000/svg" xmlns:xlink="http://www.w3.org/1999/xlink" width="100" height="128" viewBox="0 0 100 128">
  <defs>
    <style>
      .cls-1 {
        fill: #f76767;
        fill-rule: evenodd;
        filter: url(#filter);
      }
    </style>
    <filter id="filter" x="510" y="2428" width="100" height="128" filterUnits="userSpaceOnUse">
      <feFlood result="flood" flood-color="#fff"/>
      <feComposite result="composite" operator="in" in2="SourceGraphic"/>
      <feBlend result="blend" in2="SourceGraphic"/>
    </filter>
  </defs>
  <path id="Forma_1" data-name="Forma 1" class="cls-1" d="M600.1,2436.02H579.984a9.9,9.9,0,0,0-7.954-4.01h-5.183a7.851,7.851,0,0,0-13.694,0H547.97a9.9,9.9,0,0,0-7.954,4.01H519.9a9.9,9.9,0,0,0-9.9,9.89v100.2a9.908,9.908,0,0,0,9.9,9.89h80.2a9.908,9.908,0,0,0,9.9-9.89v-100.2A9.9,9.9,0,0,0,600.1,2436.02Zm-58.27,5.88a6.142,6.142,0,0,1,6.14-6.13h6.383a1.892,1.892,0,0,0,1.771-1.25,4.1,4.1,0,0,1,7.751,0,1.894,1.894,0,0,0,1.772,1.25h6.383a6.142,6.142,0,0,1,6.14,6.13v6.14H541.83v-6.14Zm64.41,104.21a6.142,6.142,0,0,1-6.14,6.13H519.9a6.143,6.143,0,0,1-6.141-6.13v-100.2a6.151,6.151,0,0,1,6.141-6.14h18.4a9.874,9.874,0,0,0-.234,2.13v8.02a1.879,1.879,0,0,0,1.88,1.88h40.1a1.879,1.879,0,0,0,1.88-1.88v-8.02a9.874,9.874,0,0,0-.234-2.13h18.4a6.15,6.15,0,0,1,6.14,6.14v100.2Zm-6.14-102.08H588.07a1.88,1.88,0,1,0,0,3.76h10.15v96.44H521.78v-96.44h10.15a1.88,1.88,0,1,0,0-3.76H519.9a1.879,1.879,0,0,0-1.88,1.88v100.2a1.877,1.877,0,0,0,1.88,1.87h80.2a1.877,1.877,0,0,0,1.88-1.87v-100.2A1.879,1.879,0,0,0,600.1,2444.03Zm-40.1-8.01a1.887,1.887,0,0,0-1.328.55,1.859,1.859,0,0,0-.552,1.32,1.88,1.88,0,0,0,3.76,0,1.859,1.859,0,0,0-.552-1.32A1.887,1.887,0,0,0,560,2436.02Zm-31.955,82.03a5.89,5.89,0,1,0,11-2.92l8.626-9.7a5.878,5.878,0,0,0,6.6-1.4l11.9,5.41a5.68,5.68,0,0,0-.031.59,5.89,5.89,0,1,0,9.752-4.43l9.787-23.76c0.127,0.01.256,0.02,0.386,0.02a5.9,5.9,0,1,0-3.861-1.45l-9.787,23.75c-0.128-.01-0.257-0.01-0.387-0.01a5.874,5.874,0,0,0-4.3,1.87l-11.9-5.41a5.68,5.68,0,0,0,.031-0.59,5.89,5.89,0,0,0-11.78,0,5.807,5.807,0,0,0,.779,2.91l-8.626,9.7A5.888,5.888,0,0,0,528.045,2518.05Zm58.02-44.21a2.13,2.13,0,1,1-2.13,2.13A2.129,2.129,0,0,1,586.065,2473.84Zm-14.035,34.07a2.125,2.125,0,1,1-2.13,2.12A2.126,2.126,0,0,1,572.03,2507.91Zm-22.055-10.02a2.125,2.125,0,1,1-2.13,2.13A2.129,2.129,0,0,1,549.975,2497.89Zm-13.91,20.16a2.13,2.13,0,1,1-2.13-2.13A2.136,2.136,0,0,1,536.065,2518.05Z" transform="translate(-510 -2428)"/>
</svg>
