<svg xmlns="http://www.w3.org/2000/svg" width="110" height="120" viewBox="0 0 110 120">
  <defs>
    <style>
      .cls-1 {
        fill: #fff;
        fill-rule: evenodd;
      }
    </style>
  </defs>
  <path id="Forma_1" data-name="Forma 1" class="cls-1" d="M1361,2552c-30.33,0-55-24.02-55-53.56,0-22.43,14.56-42.64,36.26-50.3a5.169,5.169,0,0,1,6.59,2.99,4.977,4.977,0,0,1-3.06,6.41c-17.63,6.25-29.5,22.68-29.5,40.9,0,24.03,20.06,43.54,44.71,43.54,24.67,0,44.71-19.54,44.71-43.54,0-18.22-11.84-34.68-29.5-40.9a4.954,4.954,0,0,1-3.06-6.41,5.157,5.157,0,0,1,6.59-2.99c21.67,7.66,36.26,27.87,36.26,50.3,0,29.54-24.67,53.56-55,53.56h0Zm0-47.07a5.056,5.056,0,0,1-5.13-5V2437a5.132,5.132,0,0,1,10.26,0v62.91a5.073,5.073,0,0,1-5.13,5.02h0Z" transform="translate(-1306 -2432)"/>
</svg>
