<svg xmlns="http://www.w3.org/2000/svg" width="75" height="124" viewBox="0 0 75 124">
  <defs>
    <style>
      .cls-1 {
        fill: #fff;
        fill-rule: evenodd;
      }
    </style>
  </defs>
  <path id="Forma_1" data-name="Forma 1" class="cls-1" d="M940.647,1031.43a2.206,2.206,0,0,0,1.56-.65l8.823-8.86a2.209,2.209,0,0,0-3.119-3.13l-8.824,8.86A2.215,2.215,0,0,0,940.647,1031.43Zm0,11.07a2.206,2.206,0,0,0,1.56-.65l4.411-4.43a2.209,2.209,0,1,0-3.119-3.13l-4.412,4.43A2.215,2.215,0,0,0,940.647,1042.5Zm7.257-12.64a2.3,2.3,0,0,0-.639,1.57,2.337,2.337,0,0,0,.639,1.57,2.237,2.237,0,0,0,3.133,0,2.337,2.337,0,0,0,.639-1.57A2.206,2.206,0,0,0,947.9,1029.86Zm4.419-1.29a2.22,2.22,0,0,0,3.119,0l6.617-6.65a2.209,2.209,0,0,0-3.119-3.13l-6.617,6.64A2.228,2.228,0,0,0,952.323,1028.57Zm6.617,1.29-19.853,19.93a2.21,2.21,0,1,0,3.12,3.13l19.852-19.93A2.209,2.209,0,0,0,958.94,1029.86Zm4.406-4.43a2.246,2.246,0,0,0,0,3.14A2.217,2.217,0,1,0,963.346,1025.43Zm6.624-6.64-2.206,2.22a2.209,2.209,0,1,0,3.119,3.13l2.206-2.22A2.209,2.209,0,0,0,969.97,1018.79ZM986.159,996H937.047a11.877,11.877,0,0,0-11.841,11.89v3.61a2.209,2.209,0,0,0-2.206,2.21v2.22a2.209,2.209,0,0,0,2.206,2.21v2.22a2.209,2.209,0,0,0-2.206,2.21v2.22a2.209,2.209,0,0,0,2.206,2.21v2.21a2.211,2.211,0,0,0-2.206,2.22v2.21a2.211,2.211,0,0,0,2.206,2.22v72.25A11.877,11.877,0,0,0,937.047,1120h49.112A11.877,11.877,0,0,0,998,1108.11V1007.89A11.877,11.877,0,0,0,986.159,996Zm7.429,112.11a7.449,7.449,0,0,1-7.429,7.46H937.047a7.449,7.449,0,0,1-7.429-7.46V1007.89a7.449,7.449,0,0,1,7.429-7.46h49.112a7.449,7.449,0,0,1,7.429,7.46v100.22Zm-61.764-8.04h59.558V1011.5H931.824v88.57Zm4.411-84.14h50.736v79.71H936.235v-79.71Zm26.471-6.64h6.618a2.215,2.215,0,0,0,0-4.43h-6.618A2.215,2.215,0,0,0,962.706,1009.29Zm-8.824,0a2.219,2.219,0,1,0-1.566-3.79,2.281,2.281,0,0,0-.64,1.57A2.2,2.2,0,0,0,953.882,1009.29Zm7.721,93a5.535,5.535,0,1,1-5.515,5.53A5.519,5.519,0,0,1,961.6,1102.29Z" transform="translate(-923 -996)"/>
</svg>
