<svg xmlns="http://www.w3.org/2000/svg" width="106" height="105.97" viewBox="0 0 106 105.97">
  <defs>
    <style>
      .cls-1 {
        fill: #fff;
        fill-rule: evenodd;
      }
    </style>
  </defs>
  <path id="Forma_1" data-name="Forma 1" class="cls-1" d="M1316.73,1026.83a1.774,1.774,0,0,0-1.47-3.23,14.09,14.09,0,0,0-3.38,2.19,1.769,1.769,0,1,0,2.31,2.68A10.512,10.512,0,0,1,1316.73,1026.83Zm6.17-.96h3.53a1.775,1.775,0,0,0,0-3.55h-3.53A1.775,1.775,0,0,0,1322.9,1025.87Zm10.6,0h3.53a1.775,1.775,0,0,0,0-3.55h-3.53A1.775,1.775,0,0,0,1333.5,1025.87Zm-7.07,21.28h-3.53a1.775,1.775,0,0,0,0,3.55h3.53A1.775,1.775,0,0,0,1326.43,1047.15Zm21.2,0h-3.53a1.775,1.775,0,0,0,0,3.55h3.53A1.775,1.775,0,0,0,1347.63,1047.15Zm-10.6,0h-3.53a1.775,1.775,0,0,0,0,3.55h3.53A1.775,1.775,0,0,0,1337.03,1047.15Zm-20.3-.96a10.512,10.512,0,0,1-2.54-1.64,1.769,1.769,0,0,0-2.31,2.68,14.4,14.4,0,0,0,3.38,2.19,1.761,1.761,0,0,0,2.34-.88A1.77,1.77,0,0,0,1316.73,1046.19Zm41.5,0.96h-3.53a1.775,1.775,0,0,0,0,3.55h3.53A1.775,1.775,0,0,0,1358.23,1047.15Zm31.8,0h-3.53a1.775,1.775,0,0,0,0,3.55h3.53A1.775,1.775,0,0,0,1390.03,1047.15Zm10.6,0h-3.53a1.775,1.775,0,0,0,0,3.55h3.53A1.775,1.775,0,0,0,1400.63,1047.15Zm-31.8,0h-3.53a1.775,1.775,0,0,0,0,3.55h3.53A1.775,1.775,0,0,0,1368.83,1047.15Zm10.6,0h-3.53a1.775,1.775,0,0,0,0,3.55h3.53A1.775,1.775,0,0,0,1379.43,1047.15Zm-62.7,52.25a10.82,10.82,0,0,1-2.54-1.64,1.769,1.769,0,0,0-2.31,2.68,14.052,14.052,0,0,0,3.38,2.18A1.77,1.77,0,0,0,1316.73,1099.4Zm20.3,0.96h-3.53a1.77,1.77,0,0,0,0,3.54h3.53A1.77,1.77,0,0,0,1337.03,1100.36Zm-10.6,0h-3.53a1.77,1.77,0,0,0,0,3.54h3.53A1.77,1.77,0,0,0,1326.43,1100.36Zm42.4,0h-3.53a1.77,1.77,0,1,0,0,3.54h3.53A1.77,1.77,0,0,0,1368.83,1100.36Zm5.3,1.77a1.767,1.767,0,0,0,1.77,1.77h3.53a1.77,1.77,0,0,0,0-3.54h-3.53A1.767,1.767,0,0,0,1374.13,1102.13Zm12.37,1.77h3.53a1.77,1.77,0,0,0,0-3.54h-3.53A1.77,1.77,0,1,0,1386.5,1103.9Zm-28.27-3.54h-3.53a1.77,1.77,0,0,0,0,3.54h3.53A1.77,1.77,0,0,0,1358.23,1100.36Zm38.87,3.54h3.53a1.77,1.77,0,0,0,0-3.54h-3.53A1.77,1.77,0,1,0,1397.1,1103.9Zm-49.47-3.54h-3.53a1.77,1.77,0,0,0,0,3.54h3.53A1.77,1.77,0,0,0,1347.63,1100.36Zm37.1-26.61a7.07,7.07,0,1,0,7.07-7.09A7.089,7.089,0,0,0,1384.73,1073.75Zm7.07-3.54a3.545,3.545,0,1,1-3.53,3.54A3.538,3.538,0,0,1,1391.8,1070.21Zm-8.94-54.98-9.6-9.64a2,2,0,0,0-2.84,0l-3.62,3.63-3.61-3.63a2,2,0,0,0-2.84,0l-9.61,9.64h-29.61a14.173,14.173,0,0,0-14.13,14.19v68.89a12.677,12.677,0,0,0,12.64,12.69H1413v-95.77h-30.14Zm-11.02-6.05,6.03,6.05,24.73,24.83h-9.52l-19.91-19.99a1.9,1.9,0,0,0-2.68.02l-19.89,19.97h-9.52l28.22-28.33h0Zm16.24,30.88H1355.6l16.24-16.31Zm-26.31-30.88,2.54,2.55-28.23,28.33h-5.07l24.73-24.83Zm-40.64,9.6h26.08l-3.64,3.65a1.7,1.7,0,0,0-1.12,1.12l-16.44,16.51h-4.88A10.64,10.64,0,0,1,1321.13,1018.78Zm88.34,63.84h-19.44a8.865,8.865,0,0,1,0-17.73h19.44v17.73Zm0-35.47h-1.77a1.775,1.775,0,0,0,0,3.55h1.77v10.64h-19.44a12.415,12.415,0,0,0,0,24.83h19.44v14.19h-1.77a1.77,1.77,0,1,0,0,3.54h1.77v3.55h-89.83a9.137,9.137,0,0,1-9.11-9.14v-3.91a1.76,1.76,0,0,0,.43-1.69,10.824,10.824,0,0,1-.43-3V1041.2a1.76,1.76,0,0,0,.43-1.69c-0.03-.12-0.05-0.24-0.08-0.35,0.16,0.17.32,0.33,0.49,0.49,0.15,0.15.31,0.29,0.47,0.43,0.2,0.17.4,0.34,0.6,0.5,0.17,0.13.34,0.26,0.51,0.38,0.21,0.16.43,0.3,0.66,0.45,0.18,0.11.35,0.22,0.54,0.33,0.23,0.13.47,0.25,0.71,0.37,0.19,0.1.37,0.19,0.56,0.28,0.25,0.11.51,0.21,0.77,0.31l0.57,0.21c0.28,0.09.56,0.16,0.85,0.23,0.18,0.05.37,0.11,0.56,0.15,0.32,0.07.64,0.12,0.97,0.16,0.16,0.02.32,0.06,0.49,0.08a14.758,14.758,0,0,0,1.5.08h88.34v3.54Zm-1.87-7.09-14.14-14.19h0.11a1.775,1.775,0,0,0,0-3.55h-3.54c-0.03,0-.05.02-0.08,0.02l-3.55-3.56h23.07v21.28h-1.87Zm-3.43-17.74h-3.54a1.775,1.775,0,0,0,0,3.55h3.54A1.775,1.775,0,0,0,1404.17,1022.32Z" transform="translate(-1307 -1005.03)"/>
</svg>
