<svg xmlns="http://www.w3.org/2000/svg" width="25" height="40" viewBox="0 0 25 40">
  <defs>
    <style>
      .cls-1 {
        fill-rule: evenodd;
      }
    </style>
  </defs>
  <path id="Forma_1_копия_10" data-name="Forma 1 копия 10" class="cls-1" d="M1161.51,3863a12.344,12.344,0,0,1,8.82,3.71,12.615,12.615,0,0,1,3.67,8.93c0,3.53-2.25,7.79-4.21,11.51-0.6,1.13-1.18,2.21-1.63,3.18l-5.75,12.09a1.008,1.008,0,0,1-1.35.48,1.04,1.04,0,0,1-.47-0.48h0l-5.74-12.09c-0.46-.97-1.04-2.05-1.62-3.18-1.98-3.72-4.23-7.98-4.23-11.51a12.615,12.615,0,0,1,3.67-8.93,12.39,12.39,0,0,1,8.84-3.71h0Zm0,6.44a6.075,6.075,0,0,1,4.32,1.81,6.254,6.254,0,0,1,0,8.76,6.075,6.075,0,0,1-4.32,1.81,6.19,6.19,0,0,1,0-12.38h0Zm2.89,3.26a4.057,4.057,0,0,0-5.8,0,4.177,4.177,0,0,0,0,5.86,4.057,4.057,0,0,0,5.8,0,4.177,4.177,0,0,0,0-5.86h0Zm4.51-4.55a10.371,10.371,0,0,0-14.81,0,10.607,10.607,0,0,0-3.08,7.49c0,3.04,2.12,7.03,3.98,10.55,0.6,1.15,1.18,2.25,1.66,3.26l4.85,10.18,4.83-10.18c0.48-1.01,1.06-2.11,1.66-3.26,1.86-3.52,3.98-7.51,3.98-10.55a10.6,10.6,0,0,0-3.07-7.49h0Z" transform="translate(-1149 -3863)"/>
</svg>
