<svg xmlns="http://www.w3.org/2000/svg" width="25" height="18" viewBox="0 0 25 18"><defs><style>.cls-1{fill:#fff;fill-rule:evenodd}</style></defs><path id="Forma_1" data-name="Forma 1" class="cls-1" d="M601.5 264.49a2.251 2.251 0 1 0 2.281 2.251 2.268 2.268 0 0 0-2.281-2.251zm12.226-7.865a16.084 16.084 0 0 0-24.452 0 1.111 1.111 0 0 0 .14 1.584 1.149 1.149 0 0 0 1.607-.137 13.783 13.783 0 0 1 20.958 0 1.15 1.15 0 0 0 1.607.138 1.113 1.113 0 0 0 .139-1.585zm-12.226-1.133a11.458 11.458 0 0 0-8.733 4.022 1.114 1.114 0 0 0 .14 1.585 1.152 1.152 0 0 0 .733.264 1.14 1.14 0 0 0 .874-.4 9.188 9.188 0 0 1 13.972 0 1.15 1.15 0 0 0 1.607.138 1.114 1.114 0 0 0 .14-1.585 11.458 11.458 0 0 0-8.733-4.024zm0 4.5a6.871 6.871 0 0 0-5.24 2.414 1.114 1.114 0 0 0 .14 1.585 1.153 1.153 0 0 0 1.607-.138 4.591 4.591 0 0 1 6.985 0 1.154 1.154 0 0 0 1.608.138 1.114 1.114 0 0 0 .14-1.585 6.871 6.871 0 0 0-5.24-2.415z" transform="translate(-589 -251)"/></svg>